<?xml version="1.0" standalone="no"?>
<!DOCTYPE svg PUBLIC "-//W3C//DTD SVG 20010904//EN"
 "http://www.w3.org/TR/2001/REC-SVG-20010904/DTD/svg10.dtd">
<svg version="1.0" xmlns="http://www.w3.org/2000/svg"
 width="400.000000pt" height="400.000000pt" viewBox="0 0 400.000000 400.000000"
 preserveAspectRatio="xMidYMid meet">
<metadata>
Created by potrace 1.16, written by Peter Selinger 2001-2019
</metadata>
<g transform="translate(0.000000,400.000000) scale(0.100000,-0.100000)"
fill="#000000" stroke="none">
<path d="M196 2434 c-3 -764 -9 -1578 -12 -1810 l-7 -421 1143 -6 c629 -4
1443 -7 1810 -7 l667 0 6 1133 c4 622 7 1434 7 1803 l0 671 -1377 7 c-758 3
-1570 9 -1804 12 l-426 7 -7 -1389z m1182 951 c-3 -29 -5 -30 -63 -36 -125
-12 -174 -47 -194 -139 -7 -32 -11 -206 -11 -471 l0 -419 43 6 c117 16 204 55
279 122 38 35 389 476 456 574 49 72 92 169 92 208 0 66 -51 107 -145 119 -47
6 -50 8 -53 37 l-3 31 330 -1 331 -1 0 -32 c0 -27 -4 -33 -20 -33 -74 0 -237
-88 -312 -168 -42 -45 -564 -709 -589 -750 -11 -18 28 -77 386 -578 218 -308
416 -578 438 -601 41 -43 122 -91 190 -113 32 -10 37 -15 37 -43 l0 -32 -370
0 -370 0 0 31 c0 30 3 32 46 39 88 13 121 46 97 98 -6 12 -138 216 -295 452
-217 328 -298 442 -341 482 -57 51 -109 75 -190 87 l-38 5 3 -497 c3 -474 4
-499 23 -537 26 -52 65 -73 163 -87 l82 -11 0 -31 0 -31 -425 0 -425 0 0 31 0
32 70 7 c93 9 149 38 175 90 20 39 20 60 20 1015 0 926 -1 978 -18 1017 -23
50 -72 79 -147 88 -96 11 -100 13 -100 43 l0 27 425 0 426 0 -3 -30z m2132 3
c0 -30 -4 -32 -100 -43 -70 -8 -123 -38 -146 -84 -18 -34 -19 -84 -25 -971 -6
-931 -11 -1055 -45 -1240 -33 -181 -94 -303 -210 -417 -126 -125 -304 -193
-501 -193 -48 0 -118 7 -154 14 -218 46 -341 211 -266 356 32 63 65 83 142 88
56 4 70 1 109 -22 128 -75 108 -275 -32 -316 -27 -8 -27 -8 18 -28 97 -45 262
-38 370 15 157 77 227 223 250 523 14 189 14 2073 -1 2140 -20 92 -69 127
-194 139 -58 6 -60 7 -63 36 l-3 30 426 0 425 0 0 -27z"/>
</g>
</svg>
